<?xml version="1.0" encoding="UTF-8"?>
<svg version="1.1" xmlns="http://www.w3.org/2000/svg" width="48" height="48">
<path d="M0 0 C0.61488281 0.0721875 1.22976562 0.144375 1.86328125 0.21875 C3.07564453 0.35796875 3.07564453 0.35796875 4.3125 0.5 C5.51326172 0.63921875 5.51326172 0.63921875 6.73828125 0.78125 C9.11896555 1.04813463 9.11896555 1.04813463 12 1 C12 11.23 12 21.46 12 32 C10.35 31.67 8.7 31.34 7 31 C6.67 31.33 6.34 31.66 6 32 C4.36527118 32.08700342 2.72685945 32.10701063 1.08984375 32.09765625 C0.10048828 32.09443359 -0.88886719 32.09121094 -1.90820312 32.08789062 C-2.94912109 32.07951172 -3.99003906 32.07113281 -5.0625 32.0625 C-6.10728516 32.05798828 -7.15207031 32.05347656 -8.22851562 32.04882812 C-10.8190666 32.03699913 -13.40950559 32.02051689 -16 32 C-16 30.68 -16 29.36 -16 28 C-16.66 28 -17.32 28 -18 28 C-18 29.32 -18 30.64 -18 32 C-18.99 32 -19.98 32 -21 32 C-21 21.77 -21 11.54 -21 1 C-20.34 1 -19.68 1 -19 1 C-18.34 3.97 -17.68 6.94 -17 10 C-16.34 7.03 -15.68 4.06 -15 1 C-11.04 1 -7.08 1 -3 1 C-2.67 1.66 -2.34 2.32 -2 3 C-1.34 2.01 -0.68 1.02 0 0 Z M-11 9 C-11 9.99 -11 10.98 -11 12 C-10.34 12 -9.68 12 -9 12 C-9 11.01 -9 10.02 -9 9 C-9.66 9 -10.32 9 -11 9 Z M-6 9 C-6 10.98 -6 12.96 -6 15 C-5.67 15 -5.34 15 -5 15 C-5 13.02 -5 11.04 -5 9 C-5.33 9 -5.66 9 -6 9 Z M6 9 C6 10.98 6 12.96 6 15 C6.33 15 6.66 15 7 15 C7 13.02 7 11.04 7 9 C6.67 9 6.34 9 6 9 Z M-11 21 C-11 21.99 -11 22.98 -11 24 C-10.34 24 -9.68 24 -9 24 C-9 23.01 -9 22.02 -9 21 C-9.66 21 -10.32 21 -11 21 Z " fill="#333B4E" transform="translate(36,9)"/>
<path d="M0 0 C1.98 0 3.96 0 6 0 C10.42477316 9.04192777 10.16213328 18.14172506 10.125 28.0625 C10.12886719 29.09955078 10.13273438 30.13660156 10.13671875 31.20507812 C10.12949782 36.89877778 9.8516964 42.36934047 9 48 C6.69 48 4.38 48 2 48 C1.67 47.34 1.34 46.68 1 46 C0.67 46.66 0.34 47.32 0 48 C-0.99 48 -1.98 48 -3 48 C-3.07453648 42.44989917 -3.12878399 36.90009414 -3.16479492 31.34960938 C-3.17981793 29.46414103 -3.20024231 27.57870725 -3.22631836 25.69335938 C-3.26298863 22.9725691 -3.27979146 20.25224359 -3.29296875 17.53125 C-3.30845261 16.69758911 -3.32393646 15.86392822 -3.33988953 15.00500488 C-3.34149232 9.34464213 -2.26141166 5.19576934 0 0 Z M3 11 C2.34 12.32 1.68 13.64 1 15 C2.32 15 3.64 15 5 15 C4.34 13.68 3.68 12.36 3 11 Z M4 41 C5 45 5 45 5 45 Z " fill="#353C4F" transform="translate(3,0)"/>
<path d="M0 0 C1.32 0.66 2.64 1.32 4 2 C4 8.6 4 15.2 4 22 C3.34 22 2.68 22 2 22 C1.67 20.68 1.34 19.36 1 18 C0.67 19.32 0.34 20.64 0 22 C-0.66 22 -1.32 22 -2 22 C-2.05807043 18.89591193 -2.09361914 15.7919636 -2.125 12.6875 C-2.14175781 11.80642578 -2.15851563 10.92535156 -2.17578125 10.01757812 C-2.18222656 9.17001953 -2.18867187 8.32246094 -2.1953125 7.44921875 C-2.20578613 6.66893311 -2.21625977 5.88864746 -2.22705078 5.0847168 C-2 3 -2 3 0 0 Z " fill="#FB5F16" transform="translate(5,14)"/>
<path d="M0 0 C0.66 0.33 1.32 0.66 2 1 C2 5.29 2 9.58 2 14 C1.34 14 0.68 14 0 14 C-0.89214652 11.32356043 -1.13540211 9.74615622 -1.125 7 C-1.12757812 6.319375 -1.13015625 5.63875 -1.1328125 4.9375 C-1 3 -1 3 0 0 Z " fill="#E8440B" transform="translate(36,18)"/>
</svg>
